<mxfile host="app.diagrams.net" modified="2023-05-02T05:12:03.363Z" agent="Mozilla/5.0 (Macintosh; Intel Mac OS X 10.15; rv:110.0) Gecko/20100101 Firefox/110.0" etag="Z3_Pk0vjWhvnczqH5sa3" version="21.2.3" type="device">
  <diagram id="C5RBs43oDa-KdzZeNtuy" name="Page-1">
    <mxGraphModel dx="1406" dy="965" grid="1" gridSize="17" guides="1" tooltips="1" connect="1" arrows="1" fold="1" page="1" pageScale="1" pageWidth="827" pageHeight="1169" background="#ffffff" math="0" shadow="0">
      <root>
        <mxCell id="WIyWlLk6GJQsqaUBKTNV-0" />
        <mxCell id="WIyWlLk6GJQsqaUBKTNV-1" parent="WIyWlLk6GJQsqaUBKTNV-0" />
        <mxCell id="mh0SPFVMBxIX8wjA_n8o-1" value="" style="group" vertex="1" connectable="0" parent="WIyWlLk6GJQsqaUBKTNV-1">
          <mxGeometry x="476" y="202" width="969" height="799" as="geometry" />
        </mxCell>
        <mxCell id="mh0SPFVMBxIX8wjA_n8o-3" value="" style="rounded=0;whiteSpace=wrap;html=1;" vertex="1" parent="mh0SPFVMBxIX8wjA_n8o-1">
          <mxGeometry x="-63" y="-41" width="1032" height="806" as="geometry" />
        </mxCell>
        <mxCell id="PkduJWYeo7JOU253DdXy-74" style="edgeStyle=orthogonalEdgeStyle;rounded=0;orthogonalLoop=1;jettySize=auto;html=1;" parent="mh0SPFVMBxIX8wjA_n8o-1" target="PkduJWYeo7JOU253DdXy-71" edge="1">
          <mxGeometry relative="1" as="geometry">
            <mxPoint x="17" y="104" as="sourcePoint" />
            <Array as="points">
              <mxPoint x="18" y="104" />
            </Array>
          </mxGeometry>
        </mxCell>
        <mxCell id="PkduJWYeo7JOU253DdXy-75" value="Required Courses" style="edgeLabel;html=1;align=center;verticalAlign=middle;resizable=0;points=[];rotation=-90;" parent="PkduJWYeo7JOU253DdXy-74" vertex="1" connectable="0">
          <mxGeometry x="0.106" y="1" relative="1" as="geometry">
            <mxPoint as="offset" />
          </mxGeometry>
        </mxCell>
        <mxCell id="PkduJWYeo7JOU253DdXy-70" value="" style="sketch=0;outlineConnect=0;fontColor=#232F3E;gradientColor=none;fillColor=#232F3D;strokeColor=none;dashed=0;verticalLabelPosition=bottom;verticalAlign=top;align=center;html=1;fontSize=12;fontStyle=0;aspect=fixed;pointerEvents=1;shape=mxgraph.aws4.user;" parent="mh0SPFVMBxIX8wjA_n8o-1" vertex="1">
          <mxGeometry y="19" width="78" height="78" as="geometry" />
        </mxCell>
        <mxCell id="PkduJWYeo7JOU253DdXy-78" style="edgeStyle=orthogonalEdgeStyle;rounded=0;orthogonalLoop=1;jettySize=auto;html=1;" parent="mh0SPFVMBxIX8wjA_n8o-1" source="PkduJWYeo7JOU253DdXy-71" edge="1">
          <mxGeometry relative="1" as="geometry">
            <mxPoint x="68" y="104" as="targetPoint" />
            <Array as="points">
              <mxPoint x="68" y="104" />
            </Array>
          </mxGeometry>
        </mxCell>
        <mxCell id="PkduJWYeo7JOU253DdXy-79" value="&lt;div&gt;schedule.json&lt;/div&gt;" style="edgeLabel;html=1;align=center;verticalAlign=middle;resizable=0;points=[];rotation=90;" parent="PkduJWYeo7JOU253DdXy-78" vertex="1" connectable="0">
          <mxGeometry x="0.1925" y="3" relative="1" as="geometry">
            <mxPoint y="15" as="offset" />
          </mxGeometry>
        </mxCell>
        <mxCell id="PkduJWYeo7JOU253DdXy-71" value="" style="sketch=0;outlineConnect=0;fontColor=default;gradientColor=none;fillColor=default;strokeColor=default;dashed=0;verticalLabelPosition=bottom;verticalAlign=top;align=center;html=1;fontSize=12;fontStyle=0;aspect=fixed;pointerEvents=1;shape=image;labelBackgroundColor=#ffffff;" parent="mh0SPFVMBxIX8wjA_n8o-1" vertex="1">
          <mxGeometry y="240" width="78" height="78" as="geometry" />
        </mxCell>
        <mxCell id="PkduJWYeo7JOU253DdXy-77" style="edgeStyle=orthogonalEdgeStyle;rounded=0;orthogonalLoop=1;jettySize=auto;html=1;" parent="mh0SPFVMBxIX8wjA_n8o-1" source="PkduJWYeo7JOU253DdXy-66" target="PkduJWYeo7JOU253DdXy-71" edge="1">
          <mxGeometry relative="1" as="geometry" />
        </mxCell>
        <mxCell id="PkduJWYeo7JOU253DdXy-80" value="" style="shape=image;html=1;verticalAlign=top;verticalLabelPosition=bottom;labelBackgroundColor=#ffffff;imageAspect=0;aspect=fixed;image=https://cdn4.iconfinder.com/data/icons/food-and-equipment-outline/32/burger-128.png" parent="mh0SPFVMBxIX8wjA_n8o-1" vertex="1">
          <mxGeometry y="240" width="78" height="78" as="geometry" />
        </mxCell>
        <mxCell id="mh0SPFVMBxIX8wjA_n8o-0" value="" style="group;strokeColor=default;dashed=1;dashPattern=12 12;strokeWidth=2;" vertex="1" connectable="0" parent="mh0SPFVMBxIX8wjA_n8o-1">
          <mxGeometry x="153" width="765" height="731" as="geometry" />
        </mxCell>
        <mxCell id="PkduJWYeo7JOU253DdXy-64" value="" style="group;strokeWidth=5;dashed=1;" parent="mh0SPFVMBxIX8wjA_n8o-0" vertex="1" connectable="0">
          <mxGeometry width="765" height="731" as="geometry" />
        </mxCell>
        <mxCell id="WIyWlLk6GJQsqaUBKTNV-3" value="&lt;div&gt;&lt;b&gt;main.cpp&lt;/b&gt;&lt;/div&gt;&lt;div&gt;The entry point to our program. It handles requests from the front-end and calls upon json_parser to coordinate the work&lt;br&gt;&lt;/div&gt;" style="rounded=1;whiteSpace=wrap;html=1;fontSize=12;glass=0;strokeWidth=1;shadow=0;" parent="PkduJWYeo7JOU253DdXy-64" vertex="1">
          <mxGeometry x="111" y="111" width="150" height="100" as="geometry" />
        </mxCell>
        <mxCell id="PkduJWYeo7JOU253DdXy-5" value="&lt;div&gt;&lt;b&gt;json_parser&lt;/b&gt;&lt;/div&gt;&lt;div&gt;Handles requests to read JSON data and generate course objects. It also outputs schedules to json files to be read from&lt;b&gt;&lt;br&gt;&lt;/b&gt;&lt;/div&gt;" style="rounded=1;whiteSpace=wrap;html=1;glass=0;strokeWidth=1;shadow=0;fillColor=#ffcccc;strokeColor=#36393d;" parent="PkduJWYeo7JOU253DdXy-64" vertex="1">
          <mxGeometry x="101" y="311" width="170" height="120" as="geometry" />
        </mxCell>
        <mxCell id="PkduJWYeo7JOU253DdXy-6" value="" style="edgeStyle=orthogonalEdgeStyle;rounded=0;orthogonalLoop=1;jettySize=auto;html=1;" parent="PkduJWYeo7JOU253DdXy-64" source="WIyWlLk6GJQsqaUBKTNV-3" target="PkduJWYeo7JOU253DdXy-5" edge="1">
          <mxGeometry relative="1" as="geometry" />
        </mxCell>
        <mxCell id="PkduJWYeo7JOU253DdXy-7" value="&lt;div&gt;data_.json&lt;/div&gt;" style="edgeLabel;html=1;align=center;verticalAlign=middle;resizable=0;points=[];" parent="PkduJWYeo7JOU253DdXy-6" vertex="1" connectable="0">
          <mxGeometry x="0.1648" y="3" relative="1" as="geometry">
            <mxPoint x="-3" as="offset" />
          </mxGeometry>
        </mxCell>
        <mxCell id="PkduJWYeo7JOU253DdXy-8" value="Read From" style="rounded=1;whiteSpace=wrap;html=1;fillColor=#ffcc99;strokeColor=#36393d;" parent="PkduJWYeo7JOU253DdXy-64" vertex="1">
          <mxGeometry x="16" y="511" width="120" height="60" as="geometry" />
        </mxCell>
        <mxCell id="PkduJWYeo7JOU253DdXy-9" value="data_.json" style="edgeStyle=orthogonalEdgeStyle;rounded=0;orthogonalLoop=1;jettySize=auto;html=1;" parent="PkduJWYeo7JOU253DdXy-64" source="PkduJWYeo7JOU253DdXy-5" target="PkduJWYeo7JOU253DdXy-8" edge="1">
          <mxGeometry relative="1" as="geometry">
            <Array as="points">
              <mxPoint x="76" y="371" />
            </Array>
          </mxGeometry>
        </mxCell>
        <mxCell id="PkduJWYeo7JOU253DdXy-10" value="" style="shape=waypoint;sketch=0;size=6;pointerEvents=1;points=[];fillColor=default;resizable=0;rotatable=0;perimeter=centerPerimeter;snapToPoint=1;rounded=1;" parent="PkduJWYeo7JOU253DdXy-64" vertex="1">
          <mxGeometry x="176" y="421" width="20" height="20" as="geometry" />
        </mxCell>
        <mxCell id="PkduJWYeo7JOU253DdXy-11" value="" style="edgeStyle=orthogonalEdgeStyle;rounded=0;orthogonalLoop=1;jettySize=auto;html=1;" parent="PkduJWYeo7JOU253DdXy-64" source="PkduJWYeo7JOU253DdXy-8" target="PkduJWYeo7JOU253DdXy-10" edge="1">
          <mxGeometry relative="1" as="geometry" />
        </mxCell>
        <mxCell id="PkduJWYeo7JOU253DdXy-12" value="&lt;div&gt;Course data_&lt;/div&gt;&lt;div&gt;Section data_&lt;br&gt;&lt;/div&gt;" style="edgeLabel;html=1;align=center;verticalAlign=middle;resizable=0;points=[];" parent="PkduJWYeo7JOU253DdXy-11" vertex="1" connectable="0">
          <mxGeometry x="0.1532" y="1" relative="1" as="geometry">
            <mxPoint x="1" y="-8" as="offset" />
          </mxGeometry>
        </mxCell>
        <mxCell id="PkduJWYeo7JOU253DdXy-13" value="Write To" style="rounded=1;whiteSpace=wrap;html=1;fillColor=#ffcc99;strokeColor=#36393d;" parent="PkduJWYeo7JOU253DdXy-64" vertex="1">
          <mxGeometry x="236" y="511" width="120" height="60" as="geometry" />
        </mxCell>
        <mxCell id="PkduJWYeo7JOU253DdXy-14" value="" style="shape=waypoint;sketch=0;size=6;pointerEvents=1;points=[];fillColor=default;resizable=0;rotatable=0;perimeter=centerPerimeter;snapToPoint=1;rounded=1;glass=0;strokeWidth=1;shadow=0;" parent="PkduJWYeo7JOU253DdXy-64" vertex="1">
          <mxGeometry x="286" y="501" width="20" height="20" as="geometry" />
        </mxCell>
        <mxCell id="PkduJWYeo7JOU253DdXy-15" value="" style="edgeStyle=orthogonalEdgeStyle;rounded=0;orthogonalLoop=1;jettySize=auto;html=1;exitX=0.75;exitY=1;exitDx=0;exitDy=0;" parent="PkduJWYeo7JOU253DdXy-64" source="PkduJWYeo7JOU253DdXy-5" target="PkduJWYeo7JOU253DdXy-14" edge="1">
          <mxGeometry relative="1" as="geometry" />
        </mxCell>
        <mxCell id="PkduJWYeo7JOU253DdXy-24" value="&lt;div&gt;Schedule data_&lt;/div&gt;" style="edgeStyle=orthogonalEdgeStyle;rounded=0;orthogonalLoop=1;jettySize=auto;html=1;exitX=0;exitY=0.75;exitDx=0;exitDy=0;entryX=1;entryY=0.75;entryDx=0;entryDy=0;" parent="PkduJWYeo7JOU253DdXy-64" source="PkduJWYeo7JOU253DdXy-22" target="PkduJWYeo7JOU253DdXy-5" edge="1">
          <mxGeometry relative="1" as="geometry" />
        </mxCell>
        <mxCell id="PkduJWYeo7JOU253DdXy-22" value="&lt;div&gt;&lt;b&gt;Schedule Maker&lt;/b&gt;&lt;/div&gt;&lt;div&gt;&lt;br&gt;&lt;/div&gt;&lt;div&gt;The schedule generator. It uses course and schedule objects to generate possible schedules with no overlaps and generates options based on user&#39;s preferences on time of day for classes.&lt;br&gt;&lt;/div&gt;" style="rounded=1;whiteSpace=wrap;html=1;fillColor=#cdeb8b;strokeColor=#36393d;" parent="PkduJWYeo7JOU253DdXy-64" vertex="1">
          <mxGeometry x="376" y="311" width="250" height="120" as="geometry" />
        </mxCell>
        <mxCell id="PkduJWYeo7JOU253DdXy-23" value="&lt;div&gt;Course data_&lt;/div&gt;&lt;div&gt;Section data_&lt;/div&gt;" style="edgeStyle=orthogonalEdgeStyle;rounded=0;orthogonalLoop=1;jettySize=auto;html=1;" parent="PkduJWYeo7JOU253DdXy-64" source="PkduJWYeo7JOU253DdXy-5" target="PkduJWYeo7JOU253DdXy-22" edge="1">
          <mxGeometry relative="1" as="geometry">
            <Array as="points">
              <mxPoint x="356" y="341" />
              <mxPoint x="356" y="341" />
            </Array>
          </mxGeometry>
        </mxCell>
        <mxCell id="PkduJWYeo7JOU253DdXy-44" value="" style="group;strokeColor=default;rounded=1;" parent="PkduJWYeo7JOU253DdXy-64" vertex="1" connectable="0">
          <mxGeometry x="306" y="34" width="434" height="240" as="geometry" />
        </mxCell>
        <mxCell id="PkduJWYeo7JOU253DdXy-28" value="&lt;div&gt;Data Objects&lt;/div&gt;" style="rounded=1;whiteSpace=wrap;html=1;fillColor=#647687;fontColor=#ffffff;strokeColor=#314354;" parent="PkduJWYeo7JOU253DdXy-44" vertex="1">
          <mxGeometry x="17" y="50" width="100" height="30" as="geometry" />
        </mxCell>
        <mxCell id="PkduJWYeo7JOU253DdXy-48" style="edgeStyle=orthogonalEdgeStyle;rounded=0;orthogonalLoop=1;jettySize=auto;html=1;exitX=1;exitY=0.5;exitDx=0;exitDy=0;entryX=0.003;entryY=0.58;entryDx=0;entryDy=0;entryPerimeter=0;" parent="PkduJWYeo7JOU253DdXy-44" source="PkduJWYeo7JOU253DdXy-29" target="PkduJWYeo7JOU253DdXy-36" edge="1">
          <mxGeometry relative="1" as="geometry">
            <mxPoint x="204" y="17" as="targetPoint" />
            <Array as="points">
              <mxPoint x="153" y="95" />
              <mxPoint x="153" y="34" />
              <mxPoint x="205" y="34" />
            </Array>
          </mxGeometry>
        </mxCell>
        <mxCell id="PkduJWYeo7JOU253DdXy-29" value="Class Schedule" style="rounded=1;whiteSpace=wrap;html=1;fillColor=#6d8764;fontColor=#ffffff;strokeColor=#3A5431;" parent="PkduJWYeo7JOU253DdXy-44" vertex="1">
          <mxGeometry x="17" y="80" width="100" height="30" as="geometry" />
        </mxCell>
        <mxCell id="PkduJWYeo7JOU253DdXy-51" style="edgeStyle=orthogonalEdgeStyle;rounded=0;orthogonalLoop=1;jettySize=auto;html=1;exitX=1;exitY=0.5;exitDx=0;exitDy=0;entryX=0;entryY=0.5;entryDx=0;entryDy=0;" parent="PkduJWYeo7JOU253DdXy-44" source="PkduJWYeo7JOU253DdXy-31" target="PkduJWYeo7JOU253DdXy-37" edge="1">
          <mxGeometry relative="1" as="geometry">
            <Array as="points">
              <mxPoint x="170" y="125" />
              <mxPoint x="170" y="90" />
            </Array>
          </mxGeometry>
        </mxCell>
        <mxCell id="PkduJWYeo7JOU253DdXy-31" value="Class Course" style="rounded=1;whiteSpace=wrap;html=1;fillColor=#76608a;fontColor=#ffffff;strokeColor=#432D57;" parent="PkduJWYeo7JOU253DdXy-44" vertex="1">
          <mxGeometry x="17" y="110" width="100" height="30" as="geometry" />
        </mxCell>
        <mxCell id="PkduJWYeo7JOU253DdXy-55" style="edgeStyle=orthogonalEdgeStyle;rounded=0;orthogonalLoop=1;jettySize=auto;html=1;exitX=1;exitY=0.5;exitDx=0;exitDy=0;entryX=0.001;entryY=0.598;entryDx=0;entryDy=0;entryPerimeter=0;" parent="PkduJWYeo7JOU253DdXy-44" source="PkduJWYeo7JOU253DdXy-32" target="PkduJWYeo7JOU253DdXy-38" edge="1">
          <mxGeometry relative="1" as="geometry" />
        </mxCell>
        <mxCell id="PkduJWYeo7JOU253DdXy-32" value="Class Sections" style="rounded=1;whiteSpace=wrap;html=1;fillColor=#a0522d;fontColor=#ffffff;strokeColor=#6D1F00;" parent="PkduJWYeo7JOU253DdXy-44" vertex="1">
          <mxGeometry x="17" y="140" width="100" height="30" as="geometry" />
        </mxCell>
        <mxCell id="PkduJWYeo7JOU253DdXy-56" style="edgeStyle=orthogonalEdgeStyle;rounded=0;orthogonalLoop=1;jettySize=auto;html=1;exitX=1;exitY=0.5;exitDx=0;exitDy=0;entryX=0.006;entryY=0.58;entryDx=0;entryDy=0;entryPerimeter=0;" parent="PkduJWYeo7JOU253DdXy-44" source="PkduJWYeo7JOU253DdXy-33" target="PkduJWYeo7JOU253DdXy-39" edge="1">
          <mxGeometry relative="1" as="geometry" />
        </mxCell>
        <mxCell id="PkduJWYeo7JOU253DdXy-33" value="struct Day" style="rounded=1;whiteSpace=wrap;html=1;fillColor=#e3c800;fontColor=#000000;strokeColor=#B09500;" parent="PkduJWYeo7JOU253DdXy-44" vertex="1">
          <mxGeometry x="17" y="170" width="100" height="30" as="geometry" />
        </mxCell>
        <mxCell id="PkduJWYeo7JOU253DdXy-60" style="edgeStyle=orthogonalEdgeStyle;rounded=0;orthogonalLoop=1;jettySize=auto;html=1;exitX=0;exitY=0.75;exitDx=0;exitDy=0;entryX=-0.005;entryY=0.327;entryDx=0;entryDy=0;entryPerimeter=0;" parent="PkduJWYeo7JOU253DdXy-44" source="PkduJWYeo7JOU253DdXy-36" target="PkduJWYeo7JOU253DdXy-37" edge="1">
          <mxGeometry relative="1" as="geometry">
            <Array as="points">
              <mxPoint x="187" y="45" />
              <mxPoint x="187" y="80" />
            </Array>
          </mxGeometry>
        </mxCell>
        <mxCell id="PkduJWYeo7JOU253DdXy-36" value="Hold info about generated schedules. Made up of courses, sections, and days." style="rounded=1;whiteSpace=wrap;html=1;" parent="PkduJWYeo7JOU253DdXy-44" vertex="1">
          <mxGeometry x="204" width="230" height="60" as="geometry" />
        </mxCell>
        <mxCell id="PkduJWYeo7JOU253DdXy-52" style="edgeStyle=orthogonalEdgeStyle;rounded=0;orthogonalLoop=1;jettySize=auto;html=1;exitX=0;exitY=0.75;exitDx=0;exitDy=0;entryX=0;entryY=0.25;entryDx=0;entryDy=0;" parent="PkduJWYeo7JOU253DdXy-44" source="PkduJWYeo7JOU253DdXy-37" target="PkduJWYeo7JOU253DdXy-38" edge="1">
          <mxGeometry relative="1" as="geometry">
            <Array as="points">
              <mxPoint x="187" y="105" />
              <mxPoint x="187" y="135" />
            </Array>
          </mxGeometry>
        </mxCell>
        <mxCell id="PkduJWYeo7JOU253DdXy-37" value="Holds everything relevant to the course. Made up of sections and days." style="rounded=1;whiteSpace=wrap;html=1;" parent="PkduJWYeo7JOU253DdXy-44" vertex="1">
          <mxGeometry x="204" y="60" width="230" height="60" as="geometry" />
        </mxCell>
        <mxCell id="PkduJWYeo7JOU253DdXy-54" style="edgeStyle=orthogonalEdgeStyle;rounded=0;orthogonalLoop=1;jettySize=auto;html=1;exitX=0;exitY=0.75;exitDx=0;exitDy=0;entryX=-0.008;entryY=0.385;entryDx=0;entryDy=0;entryPerimeter=0;" parent="PkduJWYeo7JOU253DdXy-44" source="PkduJWYeo7JOU253DdXy-38" target="PkduJWYeo7JOU253DdXy-39" edge="1">
          <mxGeometry relative="1" as="geometry">
            <Array as="points">
              <mxPoint x="187" y="165" />
              <mxPoint x="187" y="203" />
            </Array>
          </mxGeometry>
        </mxCell>
        <mxCell id="PkduJWYeo7JOU253DdXy-38" value="Holds the information of a section. Sections are made up of days and times" style="rounded=1;whiteSpace=wrap;html=1;" parent="PkduJWYeo7JOU253DdXy-44" vertex="1">
          <mxGeometry x="204" y="120" width="230" height="60" as="geometry" />
        </mxCell>
        <mxCell id="PkduJWYeo7JOU253DdXy-39" value="Holds information about a day. Contains day name, and start/end times" style="rounded=1;whiteSpace=wrap;html=1;" parent="PkduJWYeo7JOU253DdXy-44" vertex="1">
          <mxGeometry x="204" y="180" width="230" height="60" as="geometry" />
        </mxCell>
        <mxCell id="PkduJWYeo7JOU253DdXy-81" value="&lt;font style=&quot;font-size: 38px;&quot;&gt;&lt;b style=&quot;caret-color: rgb(0, 0, 0); color: rgb(0, 0, 0); font-style: normal; font-variant-caps: normal; letter-spacing: normal; orphans: auto; text-align: start; text-indent: 0px; text-transform: none; white-space: normal; widows: auto; word-spacing: 0px; -webkit-text-size-adjust: auto; -webkit-text-stroke-width: 0px; text-decoration: none; font-weight: normal;&quot; id=&quot;docs-internal-guid-75adcf50-7fff-6ed2-442a-a9907e3f818f&quot;&gt;&lt;span style=&quot;font-family: &amp;quot;Old Standard TT&amp;quot;, serif; color: rgb(120, 63, 4); background-color: transparent; font-weight: 400; font-style: normal; font-variant: normal; text-decoration: none; vertical-align: baseline; white-space: pre-wrap;&quot;&gt;Cours&lt;/span&gt;&lt;span style=&quot;font-family: &amp;quot;Old Standard TT&amp;quot;, serif; color: rgb(204, 65, 37); background-color: transparent; font-weight: 400; font-style: normal; font-variant: normal; text-decoration: none; vertical-align: baseline; white-space: pre-wrap;&quot;&gt;3&lt;/span&gt;&lt;span style=&quot;font-family: &amp;quot;Old Standard TT&amp;quot;, serif; color: rgb(106, 168, 79); background-color: transparent; font-weight: 400; font-style: normal; font-variant: normal; text-decoration: none; vertical-align: baseline; white-space: pre-wrap;&quot;&gt;Burg&lt;/span&gt;&lt;span style=&quot;font-family: &amp;quot;Old Standard TT&amp;quot;, serif; color: rgb(204, 65, 37); background-color: transparent; font-weight: 400; font-style: normal; font-variant: normal; text-decoration: none; vertical-align: baseline; white-space: pre-wrap;&quot;&gt;3&lt;/span&gt;&lt;span style=&quot;font-family: &amp;quot;Old Standard TT&amp;quot;, serif; color: rgb(106, 168, 79); background-color: transparent; font-weight: 400; font-style: normal; font-variant: normal; text-decoration: none; vertical-align: baseline; white-space: pre-wrap;&quot;&gt;r&lt;/span&gt;&lt;/b&gt;&lt;/font&gt;" style="text;strokeColor=none;align=center;fillColor=none;html=1;verticalAlign=middle;whiteSpace=wrap;rounded=0;" parent="PkduJWYeo7JOU253DdXy-64" vertex="1">
          <mxGeometry x="101" y="19" width="48" height="32" as="geometry" />
        </mxCell>
        <mxCell id="PkduJWYeo7JOU253DdXy-66" value="&lt;div&gt;output-&amp;lt;timestamp&amp;gt;.json&lt;/div&gt;" style="shape=datastore;whiteSpace=wrap;html=1;" parent="mh0SPFVMBxIX8wjA_n8o-0" vertex="1">
          <mxGeometry x="344.5" y="648" width="107" height="60" as="geometry" />
        </mxCell>
        <mxCell id="PkduJWYeo7JOU253DdXy-76" style="edgeStyle=orthogonalEdgeStyle;rounded=0;orthogonalLoop=1;jettySize=auto;html=1;exitX=0.5;exitY=1;exitDx=0;exitDy=0;entryX=0.5;entryY=0;entryDx=0;entryDy=0;" parent="mh0SPFVMBxIX8wjA_n8o-0" source="PkduJWYeo7JOU253DdXy-13" target="PkduJWYeo7JOU253DdXy-66" edge="1">
          <mxGeometry relative="1" as="geometry" />
        </mxCell>
        <mxCell id="PkduJWYeo7JOU253DdXy-72" style="edgeStyle=orthogonalEdgeStyle;rounded=0;orthogonalLoop=1;jettySize=auto;html=1;entryX=0;entryY=0.5;entryDx=0;entryDy=0;" parent="mh0SPFVMBxIX8wjA_n8o-1" source="PkduJWYeo7JOU253DdXy-71" target="WIyWlLk6GJQsqaUBKTNV-3" edge="1">
          <mxGeometry relative="1" as="geometry">
            <Array as="points">
              <mxPoint x="170" y="279" />
              <mxPoint x="170" y="161" />
            </Array>
          </mxGeometry>
        </mxCell>
        <mxCell id="PkduJWYeo7JOU253DdXy-73" value="&lt;div&gt;Spawn&lt;/div&gt;" style="edgeLabel;html=1;align=center;verticalAlign=middle;resizable=0;points=[];" parent="PkduJWYeo7JOU253DdXy-72" vertex="1" connectable="0">
          <mxGeometry x="-0.1712" y="-2" relative="1" as="geometry">
            <mxPoint y="1" as="offset" />
          </mxGeometry>
        </mxCell>
      </root>
    </mxGraphModel>
  </diagram>
</mxfile>
